<svg aria-hidden="true" style="position:absolute;width:0;height:0;overflow:hidden" xmlns="http://www.w3.org/2000/svg"><defs><symbol id="icon-search" viewBox="0 0 32 32"><path d="M13.333 6.667a6.667 6.667 0 1 0 0 13.334 6.667 6.667 0 0 0 0-13.334zM4 13.333a9.333 9.333 0 1 1 16.808 5.589l6.801 6.801a1.333 1.333 0 1 1-1.886 1.886l-6.801-6.801a9.333 9.333 0 0 1-14.923-7.475z"/></symbol><symbol id="icon-twitch" viewBox="0 0 32 32"><path fill="#fff" style="fill:var(--color1, #fff)" d="m26 15-4 4h-4l-3.5 3.5V19H10V4h16v11z"/><path fill="#9146ff" style="fill:var(--color2, #9146ff)" d="M9 2 4 7v18h6v5l5-5h4l9-9V2H9zm17 13-4 4h-4l-3.5 3.5V19H10V4h16v11z"/><path fill="#9146ff" style="fill:var(--color2, #9146ff)" d="M23 7.5h-2v6h2v-6zm-5.5 0h-2v6h2v-6z"/></symbol><symbol id="icon-spotify" viewBox="0 0 32 32"><path fill="#9146ff" style="fill:var(--color2, #9146ff)" d="M26.752 14.592c-4.096-2.432-10.944-2.688-14.848-1.472a1.2 1.2 0 0 1-1.472-.768 1.2 1.2 0 0 1 .768-1.472c4.544-1.344 12.032-1.088 16.768 1.728.576.32.768 1.088.448 1.664-.32.448-1.088.64-1.664.32zm-.128 3.584c-.32.448-.896.64-1.344.32-3.456-2.112-8.704-2.752-12.736-1.472-.512.128-1.088-.128-1.216-.64s.128-1.088.64-1.216c4.672-1.408 10.432-.704 14.4 1.728.384.192.576.832.256 1.28zm-1.536 3.52c-.256.384-.704.512-1.088.256-3.008-1.856-6.784-2.24-11.264-1.216-.448.128-.832-.192-.96-.576-.128-.448.192-.832.576-.96 4.864-1.088 9.088-.64 12.416 1.408.448.192.512.704.32 1.088zM19.2 3.2C12.16 3.2 6.4 8.96 6.4 16s5.76 12.8 12.8 12.8C26.24 28.8 32 23.04 32 16S26.304 3.2 19.2 3.2z"/></symbol></defs></svg>