<svg aria-hidden="true" style="position: absolute; width: 0; height: 0; overflow: hidden;" version="1.1" xmlns="http://www.w3.org/2000/svg" xmlns:xlink="http://www.w3.org/1999/xlink">
<defs>
<symbol id="icon-search" viewBox="0 0 32 32">
<path d="M13.333 6.667c-3.682 0-6.667 2.985-6.667 6.667s2.985 6.667 6.667 6.667c1.841 0 3.506-0.745 4.714-1.953s1.953-2.873 1.953-4.714c0-3.682-2.985-6.667-6.667-6.667zM4 13.333c0-5.155 4.179-9.333 9.333-9.333s9.333 4.179 9.333 9.333c0 2.096-0.692 4.032-1.858 5.589l6.801 6.801c0.521 0.521 0.521 1.365 0 1.886s-1.365 0.521-1.886 0l-6.801-6.801c-1.558 1.166-3.494 1.858-5.59 1.858-5.155 0-9.333-4.179-9.333-9.333z"></path>
</symbol>
<symbol id="icon-twitch" viewBox="0 0 32 32">
<path fill="#fff" style="fill: var(--color1, #fff)" d="M26 15l-4 4h-4l-3.5 3.5v-3.5h-4.5v-15h16v11z"></path>
<path fill="#9146ff" style="fill: var(--color2, #9146ff)" d="M9 2l-5 5v18h6v5l5-5h4l9-9v-14h-19zM26 15l-4 4h-4l-3.5 3.5v-3.5h-4.5v-15h16v11z"></path>
<path fill="#9146ff" style="fill: var(--color2, #9146ff)" d="M23 7.5h-2v6h2v-6zM17.5 7.5h-2v6h2v-6z"></path>
</symbol>
<symbol id="icon-spotify" viewBox="0 0 32 32">
<path fill="#9146ff" style="fill: var(--color2, #9146ff)" d="M26.752 14.592c-4.096-2.432-10.944-2.688-14.848-1.472-0.64 0.192-1.28-0.192-1.472-0.768-0.192-0.64 0.192-1.28 0.768-1.472 4.544-1.344 12.032-1.088 16.768 1.728 0.576 0.32 0.768 1.088 0.448 1.664-0.32 0.448-1.088 0.64-1.664 0.32zM26.624 18.176c-0.32 0.448-0.896 0.64-1.344 0.32-3.456-2.112-8.704-2.752-12.736-1.472-0.512 0.128-1.088-0.128-1.216-0.64s0.128-1.088 0.64-1.216c4.672-1.408 10.432-0.704 14.4 1.728 0.384 0.192 0.576 0.832 0.256 1.28zM25.088 21.696c-0.256 0.384-0.704 0.512-1.088 0.256-3.008-1.856-6.784-2.24-11.264-1.216-0.448 0.128-0.832-0.192-0.96-0.576-0.128-0.448 0.192-0.832 0.576-0.96 4.864-1.088 9.088-0.64 12.416 1.408 0.448 0.192 0.512 0.704 0.32 1.088zM19.2 3.2c-7.040 0-12.8 5.76-12.8 12.8s5.76 12.8 12.8 12.8c7.040 0 12.8-5.76 12.8-12.8s-5.696-12.8-12.8-12.8z"></path>
</symbol>
</defs>
</svg>
