<!-- Generated by IcoMoon.io -->
<svg version="1.1" xmlns="http://www.w3.org/2000/svg" width="32" height="32" viewBox="0 0 32 32">
<title>search</title>
<path d="M13.333 6.667c-3.682 0-6.667 2.985-6.667 6.667s2.985 6.667 6.667 6.667c1.841 0 3.506-0.745 4.714-1.953s1.953-2.873 1.953-4.714c0-3.682-2.985-6.667-6.667-6.667zM4 13.333c0-5.155 4.179-9.333 9.333-9.333s9.333 4.179 9.333 9.333c0 2.096-0.692 4.032-1.858 5.589l6.801 6.801c0.521 0.521 0.521 1.365 0 1.886s-1.365 0.521-1.886 0l-6.801-6.801c-1.558 1.166-3.494 1.858-5.59 1.858-5.155 0-9.333-4.179-9.333-9.333z"></path>
</svg>
