<svg xmlns="http://www.w3.org/2000/svg" width="32" height="32"><path fill="#9146ff" d="M26.752 14.592c-4.096-2.432-10.944-2.688-14.848-1.472a1.2 1.2 0 0 1-1.472-.768 1.2 1.2 0 0 1 .768-1.472c4.544-1.344 12.032-1.088 16.768 1.728.576.32.768 1.088.448 1.664-.32.448-1.088.64-1.664.32zm-.128 3.584c-.32.448-.896.64-1.344.32-3.456-2.112-8.704-2.752-12.736-1.472-.512.128-1.088-.128-1.216-.64s.128-1.088.64-1.216c4.672-1.408 10.432-.704 14.4 1.728.384.192.576.832.256 1.28zm-1.536 3.52c-.256.384-.704.512-1.088.256-3.008-1.856-6.784-2.24-11.264-1.216-.448.128-.832-.192-.96-.576-.128-.448.192-.832.576-.96 4.864-1.088 9.088-.64 12.416 1.408.448.192.512.704.32 1.088zM19.2 3.2C12.16 3.2 6.4 8.96 6.4 16s5.76 12.8 12.8 12.8C26.24 28.8 32 23.04 32 16S26.304 3.2 19.2 3.2z"/></svg>