<!-- Generated by IcoMoon.io -->
<svg version="1.1" xmlns="http://www.w3.org/2000/svg" width="32" height="32" viewBox="0 0 32 32">
<title>spotify</title>
<path fill="#9146ff" d="M26.752 14.592c-4.096-2.432-10.944-2.688-14.848-1.472-0.64 0.192-1.28-0.192-1.472-0.768-0.192-0.64 0.192-1.28 0.768-1.472 4.544-1.344 12.032-1.088 16.768 1.728 0.576 0.32 0.768 1.088 0.448 1.664-0.32 0.448-1.088 0.64-1.664 0.32zM26.624 18.176c-0.32 0.448-0.896 0.64-1.344 0.32-3.456-2.112-8.704-2.752-12.736-1.472-0.512 0.128-1.088-0.128-1.216-0.64s0.128-1.088 0.64-1.216c4.672-1.408 10.432-0.704 14.4 1.728 0.384 0.192 0.576 0.832 0.256 1.28zM25.088 21.696c-0.256 0.384-0.704 0.512-1.088 0.256-3.008-1.856-6.784-2.24-11.264-1.216-0.448 0.128-0.832-0.192-0.96-0.576-0.128-0.448 0.192-0.832 0.576-0.96 4.864-1.088 9.088-0.64 12.416 1.408 0.448 0.192 0.512 0.704 0.32 1.088zM19.2 3.2c-7.040 0-12.8 5.76-12.8 12.8s5.76 12.8 12.8 12.8c7.040 0 12.8-5.76 12.8-12.8s-5.696-12.8-12.8-12.8z"></path>
</svg>
